<?xml version="1.0" standalone="no"?><!DOCTYPE svg PUBLIC "-//W3C//DTD SVG 1.1//EN" "http://www.w3.org/Graphics/SVG/1.1/DTD/svg11.dtd"><svg class="icon" width="200px" height="200.00px" viewBox="0 0 1024 1024" version="1.1" xmlns="http://www.w3.org/2000/svg"><path d="M354.40128 0c-87.04 0-157.44 70.55872-157.44 157.59872v275.68128H78.72c-21.6576 0-39.36256 17.69984-39.36256 39.36256v236.31872c0 21.6576 17.69984 39.35744 39.36256 39.35744h118.24128v118.08256c0 87.04 70.4 157.59872 157.44 157.59872h472.63744c87.04 0 157.59872-70.55872 157.59872-157.59872V315.0336c0-41.74848-38.9888-81.93024-107.52-149.27872l-29.11744-29.12256L818.87744 107.52C751.5392 38.9888 711.39328 0 669.59872 0H354.4064z m0 78.72h287.20128c28.35456 7.0912 27.99616 42.1376 27.99616 76.8v120.16128c0 21.6576 17.69984 39.35744 39.36256 39.35744h118.07744c39.38816 0 78.87872-0.0256 78.87872 39.36256v512c0 43.32032-35.55328 78.87872-78.87872 78.87872H354.4064c-43.32544 0-78.72-35.5584-78.72-78.87872v-118.08256h393.91744c21.66272 0 39.36256-17.69472 39.36256-39.35744V472.64256c0-21.66272-17.69984-39.36256-39.36256-39.36256H275.68128V157.59872c0-43.32032 35.39456-78.87872 78.72-78.87872z m132.48 419.68128c23.04 0 41.27744 7.99744 54.71744 23.99744 14.08 15.36 21.12 37.44256 21.12 66.24256 0 29.44-7.04 51.84-21.12 67.2-13.44 15.36-31.67744 23.04-54.71744 23.04-23.68 0-42.24-7.36256-55.68-22.08256-13.44-15.36-20.16256-38.07744-20.16256-68.15744 0-29.44 6.72256-51.84 20.16256-67.2s32-23.04 55.68-23.04z m-139.20256 0.95744c17.92 0 33.28 3.2 46.08 9.6l-9.6 19.2c-12.16-6.4-24.32-9.6-36.48-9.6-16.64 0-30.39744 6.4-41.27744 19.2-10.24 12.16-15.36 29.44-15.36 51.84 0 23.04 4.79744 40.64256 14.39744 52.80256 9.6 11.52 23.68 17.28 42.24 17.28 10.24 0 23.36256-2.24256 39.36256-6.72256v19.2c-11.52 4.48-25.92256 6.72256-43.20256 6.72256-23.68 0-42.24-7.36256-55.68-22.08256-13.44-15.36-20.15744-38.07744-20.15744-68.15744 0-28.16 7.04-49.92 21.12-65.28 14.72-16 34.23744-24.00256 58.55744-24.00256z m-166.07744 1.92H245.9136v12.48256l-21.12 4.79744v141.12256l21.12 4.79744v12.48256H181.6064v-12.48256l21.12-4.79744V518.5536l-21.12-4.79744v-12.48256z m305.28 17.28c-17.28 0-30.40256 6.08256-39.36256 18.24256-8.96 11.52-13.44 28.8-13.44 51.84 0 23.68 4.48 41.6 13.44 53.76 8.96 11.52 22.08256 17.28 39.36256 17.28s30.39744-5.76 39.35744-17.28c8.96-12.16 13.44-30.08 13.44-53.76 0-23.04-4.48-40.32-13.44-51.84-8.96-12.16-22.07744-18.24256-39.35744-18.24256z" /></svg>