<?xml version="1.0" standalone="no"?><!DOCTYPE svg PUBLIC "-//W3C//DTD SVG 1.1//EN" "http://www.w3.org/Graphics/SVG/1.1/DTD/svg11.dtd"><svg class="icon" width="200px" height="200.00px" viewBox="0 0 1024 1024" version="1.1" xmlns="http://www.w3.org/2000/svg"><path d="M765.9 406.5c-4-63.6-55.6-119.2-119.2-119.2v123.2c39.8-4 79.5-4 119.2-4z m0 0M881.2 787.9h-298v-75.5h218.5v-35.8H583.2V629h218.5v-35.8H583.2v-55.6c35.8 11.9 75.5 11.9 107.3-11.9 35.8-19.9 51.6-59.6 55.6-99.3H626.9V307.2c-15.9 4-27.8 7.9-43.7 7.9v-91.4h298v564.2zM380.6 541.6c-19.9 7.9-43.7 7.9-67.5 7.9v107.3c-15.9 0-35.8-4-55.6-4v-298c47.7 4 107.3-19.9 151 15.9 39.6 51.7 27.7 139.1-27.9 170.9zM909 231.7c4-19.9-15.9-39.7-35.8-35.8h-290v-83.4h-51.6c-139 23.8-278.1 47.7-417.1 75.5v647.6c139 23.8 274.1 47.7 413.2 75.5h55.6v-91.4h270.1c15.9 0 31.8 0 47.7-7.9 7.9-23.8 7.9-43.7 7.9-63.6V231.7z m0 0M313.1 406.5v91.4c19.9-4 39.7 0 51.6-19.9 7.9-19.9 7.9-43.7 0-59.6-11.9-15.9-35.8-11.9-51.6-11.9z m0 0" /></svg>