<?xml version="1.0" standalone="no"?><!DOCTYPE svg PUBLIC "-//W3C//DTD SVG 1.1//EN" "http://www.w3.org/Graphics/SVG/1.1/DTD/svg11.dtd"><svg class="icon" width="200px" height="200.00px" viewBox="0 0 1024 1024" version="1.1" xmlns="http://www.w3.org/2000/svg"><path d="M896 707.2h-256c-19.2 0-32 12.8-32 32v192c0 19.2 12.8 32 32 32h256c19.2 0 32-12.8 32-32v-192c0-19.2-16-32-32-32zM768 864h-32c-19.2 0-32-12.8-32-32s12.8-32 32-32h32c19.2 0 32 12.8 32 32s-16 32-32 32z" /><path d="M576 931.2v-192c0-35.2 28.8-64 64-64h51.2l3.2-3.2c-22.4-16-48-28.8-73.6-38.4 86.4-51.2 147.2-144 147.2-249.6 0-160-128-288-288-288s-288 128-288 288c0 108.8 60.8 201.6 147.2 249.6-121.6 48-214.4 153.6-240 288-3.2 9.6 0 19.2 6.4 25.6 3.2 9.6 12.8 12.8 22.4 12.8h454.4c-6.4-9.6-6.4-19.2-6.4-28.8z" /></svg>